<svg width="60" height="60" viewBox="0 0 60 60" fill="none" xmlns="http://www.w3.org/2000/svg">
<path d="M0 30C0 13.4297 13.4297 0 30 0C46.5703 0 60 13.4297 60 30C60 46.5703 46.5703 60 30 60C13.4297 60 0 46.5703 0 30ZM30 43.125C31.5586 43.125 32.8125 41.8711 32.8125 40.3125V32.8125H40.3125C41.8711 32.8125 43.125 31.5586 43.125 30C43.125 28.4414 41.8711 27.1875 40.3125 27.1875H32.8125V19.6875C32.8125 18.1289 31.5586 16.875 30 16.875C28.4414 16.875 27.1875 18.1289 27.1875 19.6875V27.1875H19.6875C18.1289 27.1875 16.875 28.4414 16.875 30C16.875 31.5586 18.1289 32.8125 19.6875 32.8125H27.1875V40.3125C27.1875 41.8711 28.4414 43.125 30 43.125Z" fill="white"/>
</svg>
