<svg width="60" height="60" viewBox="0 0 60 60" fill="none" xmlns="http://www.w3.org/2000/svg">
<path d="M0 7.5C0 3.35742 2.98438 0 6.66667 0H23.3333V15C23.3333 17.0742 24.8229 18.75 26.6667 18.75H40V35.1094L30.1354 46.207C29.2812 47.168 28.6771 48.375 28.3854 49.6992L26.8125 56.7422C26.5729 57.8438 26.6354 58.9688 26.9583 60H6.66667C2.98438 60 0 56.6367 0 52.5V7.5ZM26.6667 15V0L40 15H26.6667ZM58.7604 29.3086C60.3958 31.1367 60.3958 34.1016 58.7604 35.9414L55.6979 39.3867L48.3125 31.0664L51.375 27.6211C53 25.793 55.6354 25.793 57.2708 27.6211L58.7604 29.3086ZM32.4896 48.7617L45.9479 33.7266L53.3437 42.0352L39.8854 57.1758C39.4583 57.6562 38.9167 57.9961 38.3333 58.1602L32.0729 59.9297C31.5 60.082 30.9062 59.8945 30.4896 59.4375C30.0729 58.9688 29.9062 58.2891 30.0521 57.5508L31.6146 50.6016C31.7604 49.9453 32.0625 49.3477 32.4896 48.7617Z" fill="white"/>
</svg>
