<svg width="212" height="80" viewBox="0 0 212 80" fill="none" xmlns="http://www.w3.org/2000/svg">
<path d="M43.6339 4.99972V7.99955C56.0764 10.3166 65.4509 20.4051 65.4509 32.4982V35.4355C65.4509 42.7945 68.3996 49.8722 73.7175 55.3719L74.9788 56.6687C76.4105 58.153 76.7684 60.2466 75.8821 62.0434C74.9958 63.8402 73.0527 64.9964 70.9051 64.9964H5.4542C3.30659 64.9964 1.35858 63.8402 0.47874 62.0434C-0.401098 60.2466 -0.0491802 58.153 1.37784 56.6687L2.64186 55.3719C7.96656 49.8722 10.9084 42.7945 10.9084 35.4355V32.4982C10.9084 20.4051 20.1295 10.3166 32.7254 7.99955V4.99972C32.7254 2.23894 35.1628 0 38.1797 0C41.1965 0 43.6339 2.23894 43.6339 4.99972ZM38.1797 79.9955C35.2821 79.9955 32.5038 78.9487 30.4585 77.0738C28.4132 75.1989 27.2712 72.5116 27.2712 69.9961H49.0882C49.0882 72.5116 47.9462 75.1989 45.9008 77.0738C43.8555 78.9487 40.9238 79.9955 38.1797 79.9955Z" fill="#FF928E"/>
<g filter="url(#filter0_d_26_37)">
<path d="M39.9043 30.9468H47.2773C49.0352 30.9468 50.4146 31.37 51.4155 32.2163C52.4246 33.0627 52.9292 34.0636 52.9292 35.2192C52.9292 36.7004 52.152 37.8356 50.5977 38.625C51.7695 38.9342 52.6647 39.4795 53.2832 40.2607C53.9098 41.042 54.2231 41.9535 54.2231 42.9951C54.2231 44.4762 53.7145 45.6807 52.6973 46.6084C51.68 47.5361 50.1826 48 48.2051 48H39.9043V30.9468ZM44.1523 34.0718V37.7217H46.374C47.0576 37.7217 47.5907 37.5467 47.9731 37.1968C48.3556 36.8468 48.5469 36.4074 48.5469 35.8784C48.5469 35.3576 48.3556 34.9263 47.9731 34.5845C47.5907 34.2427 47.0576 34.0718 46.374 34.0718H44.1523ZM44.1523 40.8467V44.875H46.5449C47.6761 44.875 48.4899 44.7204 48.9863 44.4111C49.4827 44.0938 49.731 43.5485 49.731 42.7754C49.731 42.1813 49.495 41.7134 49.0229 41.3716C48.5509 41.0216 47.9202 40.8467 47.1309 40.8467H44.1523ZM68.2002 44.4233V46.7061C66.8167 47.7152 65.1037 48.2197 63.061 48.2197C61.0347 48.2197 59.4152 47.6785 58.2026 46.5962C56.9901 45.5057 56.3838 44.0653 56.3838 42.2749C56.3838 40.5171 56.9535 39.0726 58.0928 37.9414C59.2321 36.8102 60.6847 36.2446 62.4507 36.2446C64.2248 36.2446 65.6774 36.8428 66.8086 38.0391C67.9479 39.2272 68.481 40.8223 68.4077 42.8242H60.1313C60.2046 43.8659 60.5749 44.6675 61.2422 45.229C61.9095 45.7905 62.8047 46.0713 63.9277 46.0713C65.2868 46.0713 66.7109 45.522 68.2002 44.4233ZM60.2046 40.9199H65.2095C65.0142 39.2435 64.18 38.4053 62.707 38.4053C61.2178 38.4053 60.3836 39.2435 60.2046 40.9199ZM74.4502 30.9468V48H70.8247V30.9468H74.4502ZM81.2373 30.9468V48H77.6118V30.9468H81.2373ZM91.8574 30.9468H99.4624C101.188 30.9468 102.559 31.4473 103.576 32.4482C104.593 33.4492 105.102 34.6333 105.102 36.0005C105.102 37.4165 104.597 38.6291 103.588 39.6382C102.587 40.6473 101.22 41.1519 99.4868 41.1519H96.1055V48H91.8574V30.9468ZM96.1055 34.0718V38.0269H98.083C99.849 38.0269 100.732 37.3677 100.732 36.0493C100.732 35.3088 100.496 34.7961 100.024 34.5112C99.5519 34.2183 98.7463 34.0718 97.6069 34.0718H96.1055ZM111.389 30.9468V48H107.763V30.9468H111.389ZM126.245 45.1558V47.1699C125.04 47.8698 123.909 48.2197 122.851 48.2197C121.712 48.2197 121.036 47.7884 120.825 46.9258C119.563 47.7884 118.298 48.2197 117.028 48.2197C116.133 48.2197 115.372 47.939 114.746 47.3774C114.119 46.8078 113.806 46.1486 113.806 45.3999C113.806 44.3989 114.127 43.5933 114.77 42.9829C115.421 42.3644 117.382 41.571 120.654 40.6025C120.735 39.3167 120.068 38.6738 118.652 38.6738C117.114 38.6738 115.698 39.3167 114.404 40.6025V37.6484C115.917 36.7126 117.582 36.2446 119.396 36.2446C122.652 36.2446 124.279 37.4124 124.279 39.748V44.9971C124.279 45.5342 124.479 45.8027 124.877 45.8027C125.179 45.8027 125.634 45.5871 126.245 45.1558ZM120.654 45.2046V42.4214C119.441 42.8446 118.607 43.2271 118.151 43.5688C117.704 43.9025 117.48 44.3298 117.48 44.8506C117.48 45.1842 117.594 45.4731 117.822 45.7173C118.05 45.9533 118.326 46.0713 118.652 46.0713C119.335 46.0713 120.003 45.7824 120.654 45.2046ZM136.035 36.4766V38.9546H131.835V43.7031C131.835 44.2728 131.99 44.7244 132.299 45.0581C132.617 45.3836 133.052 45.5464 133.605 45.5464C134.354 45.5464 135.164 45.3226 136.035 44.875V47.4995C134.879 47.9797 133.76 48.2197 132.678 48.2197C131.262 48.2197 130.163 47.8535 129.382 47.1211C128.601 46.3887 128.21 45.3145 128.21 43.8984V38.9546H126.562V38.2466L131.384 32.8511H131.835V36.4766H136.035ZM149.682 45.1558V47.1699C148.478 47.8698 147.347 48.2197 146.289 48.2197C145.149 48.2197 144.474 47.7884 144.262 46.9258C143.001 47.7884 141.735 48.2197 140.466 48.2197C139.571 48.2197 138.81 47.939 138.183 47.3774C137.556 46.8078 137.243 46.1486 137.243 45.3999C137.243 44.3989 137.565 43.5933 138.208 42.9829C138.859 42.3644 140.82 41.571 144.091 40.6025C144.173 39.3167 143.505 38.6738 142.089 38.6738C140.551 38.6738 139.135 39.3167 137.841 40.6025V37.6484C139.355 36.7126 141.019 36.2446 142.834 36.2446C146.089 36.2446 147.717 37.4124 147.717 39.748V44.9971C147.717 45.5342 147.916 45.8027 148.315 45.8027C148.616 45.8027 149.072 45.5871 149.682 45.1558ZM144.091 45.2046V42.4214C142.879 42.8446 142.045 43.2271 141.589 43.5688C141.141 43.9025 140.917 44.3298 140.917 44.8506C140.917 45.1842 141.031 45.4731 141.259 45.7173C141.487 45.9533 141.764 46.0713 142.089 46.0713C142.773 46.0713 143.44 45.7824 144.091 45.2046ZM155.346 36.4766H156.994V38.9546H155.346V48H151.721V38.9546H150.073V36.4766H151.721V35.9028C151.721 34.2834 152.176 33.0179 153.088 32.1064C153.999 31.1868 155.228 30.7271 156.774 30.7271C157.149 30.7271 157.881 30.8003 158.972 30.9468V33.8765C158.215 33.7788 157.674 33.73 157.348 33.73C156.014 33.73 155.346 34.4014 155.346 35.7441V36.4766ZM164.44 36.2446C166.247 36.2446 167.777 36.7736 169.03 37.8315C170.292 38.8895 170.922 40.3625 170.922 42.2505C170.922 44.1466 170.284 45.6156 169.006 46.6572C167.728 47.6989 166.206 48.2197 164.44 48.2197C162.528 48.2197 160.961 47.6663 159.741 46.5596C158.528 45.4447 157.922 44.0002 157.922 42.2261C157.922 40.4194 158.54 38.9709 159.777 37.8804C161.022 36.7899 162.577 36.2446 164.44 36.2446ZM164.44 46.0713C166.174 46.0713 167.041 44.7651 167.041 42.1528C167.041 39.6545 166.174 38.4053 164.44 38.4053C163.61 38.4053 162.959 38.7349 162.487 39.394C162.023 40.0532 161.792 40.9972 161.792 42.2261C161.792 44.7896 162.674 46.0713 164.44 46.0713ZM177.087 36.4766V39.7725H177.136C178.186 37.4206 179.41 36.2446 180.81 36.2446C181.477 36.2446 182.279 36.5946 183.215 37.2944L182.214 40.5049C181.319 39.9352 180.603 39.6504 180.065 39.6504C179.227 39.6504 178.519 40.1712 177.941 41.2129C177.372 42.2464 177.087 42.8486 177.087 43.0195V48H173.461V36.4766H177.087ZM188.269 36.4766V37.9536C189.497 36.8143 190.832 36.2446 192.272 36.2446C194.25 36.2446 195.633 37.0625 196.423 38.6982C197.814 37.0625 199.328 36.2446 200.964 36.2446C202.29 36.2446 203.373 36.6475 204.211 37.4531C205.049 38.2588 205.468 39.3086 205.468 40.6025V48H201.843V41.2495C201.843 40.4357 201.656 39.805 201.281 39.3574C200.907 38.9017 200.386 38.6738 199.719 38.6738C198.661 38.6738 197.709 39.3249 196.862 40.627V48H193.249V41.1763C193.249 40.3706 193.046 39.7521 192.639 39.3208C192.24 38.8895 191.707 38.6738 191.04 38.6738C190.087 38.6738 189.164 39.2069 188.269 40.2729V48H184.643V36.4766H188.269Z" fill="#1A0F91"/>
</g>
<defs>
<filter id="filter0_d_26_37" x="33.9043" y="28.7271" width="177.564" height="29.4927" filterUnits="userSpaceOnUse" color-interpolation-filters="sRGB">
<feFlood flood-opacity="0" result="BackgroundImageFix"/>
<feColorMatrix in="SourceAlpha" type="matrix" values="0 0 0 0 0 0 0 0 0 0 0 0 0 0 0 0 0 0 127 0" result="hardAlpha"/>
<feOffset dy="4"/>
<feGaussianBlur stdDeviation="3"/>
<feComposite in2="hardAlpha" operator="out"/>
<feColorMatrix type="matrix" values="0 0 0 0 0 0 0 0 0 0 0 0 0 0 0 0 0 0 0.44 0"/>
<feBlend mode="normal" in2="BackgroundImageFix" result="effect1_dropShadow_26_37"/>
<feBlend mode="normal" in="SourceGraphic" in2="effect1_dropShadow_26_37" result="shape"/>
</filter>
</defs>
</svg>
