<svg width="40" height="41" viewBox="0 0 40 41" fill="none" xmlns="http://www.w3.org/2000/svg">
<path d="M21.0088 9.74777C15.3302 9.74777 10.7499 14.3281 10.7499 20.0067C10.7499 25.6853 15.3302 30.2656 21.0088 30.2656C26.6874 30.2656 31.2677 25.6853 31.2677 20.0067C31.2677 14.3281 26.6874 9.74777 21.0088 9.74777ZM21.0088 26.6763C17.3391 26.6763 14.3391 23.6853 14.3391 20.0067C14.3391 16.3281 17.3302 13.3371 21.0088 13.3371C24.6874 13.3371 27.6784 16.3281 27.6784 20.0067C27.6784 23.6853 24.6784 26.6763 21.0088 26.6763ZM34.0802 9.32812C34.0802 10.6585 33.0088 11.721 31.6874 11.721C30.357 11.721 29.2945 10.6496 29.2945 9.32812C29.2945 8.00669 30.3659 6.93527 31.6874 6.93527C33.0088 6.93527 34.0802 8.00669 34.0802 9.32812ZM40.8748 11.7567C40.7231 8.55134 39.9909 5.71205 37.6427 3.37277C35.3034 1.03348 32.4641 0.301339 29.2588 0.140625C25.9552 -0.046875 16.0534 -0.046875 12.7499 0.140625C9.55343 0.292411 6.71414 1.02455 4.36593 3.36384C2.01772 5.70312 1.2945 8.54241 1.13379 11.7478C0.946289 15.0513 0.946289 24.9531 1.13379 28.2567C1.28557 31.462 2.01772 34.3013 4.36593 36.6406C6.71414 38.9799 9.5445 39.712 12.7499 39.8728C16.0534 40.0603 25.9552 40.0603 29.2588 39.8728C32.4641 39.721 35.3034 38.9888 37.6427 36.6406C39.982 34.3013 40.7141 31.462 40.8748 28.2567C41.0623 24.9531 41.0623 15.0603 40.8748 11.7567ZM36.607 31.8013C35.9106 33.5513 34.5624 34.8995 32.8034 35.6049C30.1695 36.6495 23.9195 36.4085 21.0088 36.4085C18.0981 36.4085 11.8391 36.6406 9.21414 35.6049C7.46414 34.9085 6.11593 33.5603 5.41057 31.8013C4.36593 29.1674 4.607 22.9174 4.607 20.0067C4.607 17.096 4.37486 10.8371 5.41057 8.21205C6.107 6.46205 7.45521 5.11384 9.21414 4.40848C11.8481 3.36384 18.0981 3.60491 21.0088 3.60491C23.9195 3.60491 30.1784 3.37277 32.8034 4.40848C34.5534 5.10491 35.9016 6.45312 36.607 8.21205C37.6516 10.846 37.4106 17.096 37.4106 20.0067C37.4106 22.9174 37.6516 29.1763 36.607 31.8013Z" fill="#1A0F91"/>
</svg>
